<svg xmlns="http://www.w3.org/2000/svg" viewBox="0 0 7.39 7.89">
  <defs>
    <style>
      .cls-1{fill:#fff;}.cls-2{fill:#8a8a89;}.cls-3{fill:#c6b992;}.cls-4{fill:#c4bcaa;}.cls-5{fill:#c6baa6;}.cls-6{fill:#c0bba6;}.cls-7{fill:#c8b89c;}.cls-8{fill:#c4b9a3;}.cls-9{fill:#f5eedd;}.cls-10{fill:#cdc3b4;}.cls-11{fill:#d4cdc0;}.cls-12{fill:#eae1c8;}
    </style>
  </defs>
  <title>pen</title>
  <g id="Layer_2" data-name="Layer 2">
    <g id="Layer_1-2" data-name="Layer 1">
      <rect class="cls-1" />
      <path class="cls-2"
            d="M6.63,4.7V6.85c0,.39-.17.53-.59.53H2.25c-.37,0-.52-.13-.52-.46V5.22c0-.07,0-.19.05-.19s.1.11.1.19V6.86c0,.33.06.39.42.39H6.06c.33,0,.42-.08.42-.36,0-1.42,0-2.84,0-4.26,0-.17-.05-.22-.25-.22-.57,0-1.15,0-1.73,0-.18,0-.25,0-.24-.22,0-.56,0-1.12,0-1.68,0-.15,0-.19-.21-.19H2.23c-.25,0-.35.09-.35.3s0,.59,0,.89c0,.06,0,.16-.09.16s-.06-.1-.06-.16c0-.31,0-.62,0-.93a.38.38,0,0,1,.4-.39H4.29A.46.46,0,0,1,4.6.36L6.46,2.11a.5.5,0,0,1,.17.39C6.62,3.24,6.63,4,6.63,4.7Z"/>
      <path class="cls-3"
            d="M2.62,5.34C2.29,4.89,2,4.42,1.68,4S1.21,3.21.93,2.85c0,0,0-.08,0-.12a.3.3,0,0,1-.05-.15c0-.21.05-.3.29-.25l.21,0a.33.33,0,0,1,.21.15A2.79,2.79,0,0,1,2,3.27c0,.14.11.23.18.32.28.41.52.84.84,1.23.08.09,0,.23.18.3A.41.41,0,0,1,2.62,5.34Z"/>
      <path class="cls-4"
            d="M5.74,3.22l-.09.11c-.2.26-.53.41-.74.67a.15.15,0,0,1-.22,0l-.26-.19c-.06-.05-.08-.1,0-.16a.1.1,0,0,1,.16,0c.2.16.34.1.5-.06a5.92,5.92,0,0,1,.45-.41s.07-.06.12,0Z"/>
      <path class="cls-5"
            d="M5.69,5.58a.15.15,0,0,1-.08.13c-.2.22-.46.39-.66.62a.19.19,0,0,1-.31,0l-.21-.19s-.09-.07,0-.13a.11.11,0,0,1,.17,0c.22.2.37.07.53-.07l.39-.37a.16.16,0,0,1,.16,0S5.69,5.56,5.69,5.58Z"/>
      <path class="cls-6"
            d="M5.68,4.43a.86.86,0,0,1-.13.17l-.61.55a.2.2,0,0,1-.3,0A1,1,0,0,0,4.44,5s-.1-.06-.06-.12a.11.11,0,0,1,.17,0c.23.19.39,0,.54-.09l.4-.37a.11.11,0,0,1,.12,0A.09.09,0,0,1,5.68,4.43Z"/>
      <path class="cls-7"
            d="M1.39,2.42H1.17c-.28,0-.28,0-.28.23v.09L.61,2.35a.09.09,0,0,1,0-.12.44.44,0,0,1,.67,0C1.37,2.25,1.45,2.31,1.39,2.42Z"/>
      <path class="cls-8" d="M3.27,5.34c.17.14.1.34.13.51s-.1.07-.16,0S3,5.7,2.86,5.61C2.89,5.39,3.06,5.35,3.27,5.34Z"/>
      <path class="cls-9"
            d="M1.39,2.42,1.28,2.2c.07,0,.1,0,.1-.09.23.06.23.28.35.41A3.48,3.48,0,0,1,2.07,3a.11.11,0,0,1,0,.14L2,3.27Z"/>
      <path class="cls-10"
            d="M.86,1.86c0,.08-.12.19-.21.18a.33.33,0,0,1-.26-.31.15.15,0,0,1,.16-.18C.74,1.56.78,1.73.86,1.86Z"/>
      <path class="cls-11"
            d="M2.08,3.17a3.94,3.94,0,0,0-.42-.67,2.76,2.76,0,0,0-.28-.39c0-.07,0-.12,0-.2a.9.9,0,0,1,.24.28A7.43,7.43,0,0,0,2.14,3C2.19,3.08,2.21,3.15,2.08,3.17Z"/>
      <path class="cls-12"
            d="M3.27,5.34c-.15.08-.34.1-.41.27,0-.13-.19-.15-.24-.27.29.12.42-.1.6-.22C3.3,5.18,3.25,5.27,3.27,5.34Z"/>
      <path class="cls-1"
            d="M5.39,2.25H4.6c-.15,0-.2,0-.2-.18,0-.46,0-.93,0-1.39,0-.06,0-.14.07-.17s.13.05.17.09l1.6,1.51s.09.05.06.1-.08,0-.13,0Z"/>
    </g>
  </g>
</svg>
